<?xml version="1.0" encoding="UTF-8" standalone="no"?>
<!DOCTYPE svg PUBLIC "-//W3C//DTD SVG 1.1//EN" "http://www.w3.org/Graphics/SVG/1.1/DTD/svg11.dtd">
<!-- Created with Vectornator (http://vectornator.io/) -->
<svg stroke-miterlimit="10" style="fill-rule:nonzero;clip-rule:evenodd;stroke-linecap:round;stroke-linejoin:round;" version="1.1" viewBox="0 0 315 380" xml:space="preserve" xmlns="http://www.w3.org/2000/svg" xmlns:xlink="http://www.w3.org/1999/xlink">
<defs>
<path d="M0 0L315 0L315 0L315 380L315 380L0 380L0 380L0 0L0 0Z" id="Fill"/>
</defs>
<g id="Untitled">
<g opacity="1">
<use fill="#f2f2f2" fill-rule="nonzero" opacity="1" stroke="none" xlink:href="#Fill"/>
<clipPath id="ClipPath">
<use xlink:href="#Fill"/>
</clipPath>
<g clip-path="url(#ClipPath)">
<path d="M0 0L315 0L315 0L315 380L315 380L0 380L0 380L0 0L0 0Z" fill="#f2f2f2" fill-rule="nonzero" opacity="1" stroke="none"/>
</g>
</g>
<g opacity="1">
<path d="M288.826 373.55L281.962 373.55L275.097 355.192L281.962 355.192L288.826 373.55Z" fill="#151515" fill-rule="nonzero" opacity="1" stroke="none"/>
<path d="M293.456 373.55L291.061 373.55L284.197 355.192L291.061 355.192L295.683 367.552L293.456 373.55Z" fill="#151515" fill-rule="nonzero" opacity="1" stroke="none"/>
<path d="M303.645 364.659L307.185 355.192L300.321 355.192L296.781 364.657L303.645 364.659Z" fill="#151515" fill-rule="nonzero" opacity="1" stroke="none"/>
<path d="M297.849 352.703L291.308 352.703C291.308 352.703 291.259 349.173 286.306 349.173C281.353 349.173 281.464 353.498 281.464 353.498L274.924 353.498C274.924 353.498 274.679 342.964 286.254 342.964C297.829 342.964 297.849 352.703 297.849 352.703Z" fill="#151515" fill-rule="nonzero" opacity="1" stroke="none"/>
</g>
</g>
</svg>
