<?xml version="1.0" encoding="UTF-8" standalone="no"?>
<!DOCTYPE svg PUBLIC "-//W3C//DTD SVG 1.1//EN" "http://www.w3.org/Graphics/SVG/1.1/DTD/svg11.dtd">
<!-- Created with Vectornator (http://vectornator.io/) -->
<svg height="100%" stroke-miterlimit="10" style="fill-rule:nonzero;clip-rule:evenodd;stroke-linecap:round;stroke-linejoin:round;" version="1.1" viewBox="0 0 45 380" width="100%" xml:space="preserve" xmlns="http://www.w3.org/2000/svg" xmlns:vectornator="http://vectornator.io" xmlns:xlink="http://www.w3.org/1999/xlink">
<defs>
<path d="M0-1.42109e-14L45-1.42109e-14L45-1.42109e-14L45 380L45 380L2.84217e-14 380L2.84217e-14 380L0-1.42109e-14L0-1.42109e-14Z" id="Fill"/>
<linearGradient gradientTransform="matrix(1 0 0 1 0 0)" gradientUnits="userSpaceOnUse" id="LinearGradient" x1="0" x2="45" y1="190" y2="190">
<stop offset="0" stop-color="#1a1a1a"/>
<stop offset="1" stop-color="#111111"/>
</linearGradient>
<linearGradient gradientTransform="matrix(1 0 0 1 0 0)" gradientUnits="userSpaceOnUse" id="LinearGradient_2" x1="22.2398" x2="19.6603" y1="0.168373" y2="336.643">
<stop offset="0" stop-color="#1a1a1a"/>
<stop offset="1" stop-color="#111111"/>
</linearGradient>
</defs>
<clipPath id="ArtboardFrame">
<rect height="380" width="45" x="0" y="0"/>
</clipPath>
<g clip-path="url(#ArtboardFrame)" id="Untitled" vectornator:layerName="Untitled">
<g opacity="1" vectornator:layerName="rect">
<use fill="url(#LinearGradient)" fill-rule="nonzero" opacity="1" stroke="none" vectornator:layerName="rect" xlink:href="#Fill"/>
<clipPath clip-rule="nonzero" id="ClipPath">
<use xlink:href="#Fill"/>
</clipPath>
<g clip-path="url(#ClipPath)">
<path d="M0-1.42109e-14L45-1.42109e-14L45-1.42109e-14L45 380L45 380L2.84217e-14 380L2.84217e-14 380L0-1.42109e-14L0-1.42109e-14Z" fill="url(#LinearGradient_2)" fill-rule="nonzero" opacity="1" stroke="none" vectornator:layerName="rect"/>
</g>
</g>
<g opacity="1">
<path d="M20.8264 373.55L13.9619 373.55L7.09741 355.192L13.9619 355.192L20.8264 373.55Z" fill="#f3f3f3" fill-rule="nonzero" opacity="1" stroke="none" vectornator:layerName="path"/>
<path d="M25.4559 373.55L23.0613 373.55L16.1968 355.192L23.0613 355.192L27.6829 367.552L25.4559 373.55Z" fill="#f3f3f3" fill-rule="nonzero" opacity="1" stroke="none" vectornator:layerName="path"/>
<path d="M35.6449 364.659L39.185 355.192L32.3205 355.192L28.7813 364.657L35.6449 364.659Z" fill="#f3f3f3" fill-rule="nonzero" opacity="1" stroke="none" vectornator:layerName="path"/>
<path d="M29.8485 352.703L23.3081 352.703C23.3081 352.703 23.2595 349.173 18.3062 349.173C13.353 349.173 13.4644 353.498 13.4644 353.498L6.92396 353.498C6.92396 353.498 6.67915 342.964 18.254 342.964C29.8289 342.964 29.8485 352.703 29.8485 352.703Z" fill="#f3f3f3" fill-rule="nonzero" opacity="1" stroke="none" vectornator:layerName="path"/>
</g>
</g>
</svg>
