<?xml version="1.0" encoding="UTF-8" standalone="no"?>
<!DOCTYPE svg PUBLIC "-//W3C//DTD SVG 1.1//EN" "http://www.w3.org/Graphics/SVG/1.1/DTD/svg11.dtd">
<!-- Created with Vectornator (http://vectornator.io/) -->
<svg stroke-miterlimit="10" style="fill-rule:nonzero;clip-rule:evenodd;stroke-linecap:round;stroke-linejoin:round;" version="1.1" viewBox="0 0 135 380" xml:space="preserve" xmlns="http://www.w3.org/2000/svg" xmlns:xlink="http://www.w3.org/1999/xlink">
<defs>
<path d="M0 0L135 0L135 0L135 380L135 380L0 380L0 380L0 0L0 0Z" id="Fill"/>
</defs>
<g id="Untitled">
<g opacity="1">
<use fill="#f2f2f2" fill-rule="nonzero" opacity="1" stroke="none" xlink:href="#Fill"/>
<clipPath id="ClipPath">
<use xlink:href="#Fill"/>
</clipPath>
<g clip-path="url(#ClipPath)">
<path d="M0 0L135 0L135 0L135 380L135 380L0 380L0 380L0 0L0 0Z" fill="#f2f2f2" fill-rule="nonzero" opacity="1" stroke="none"/>
</g>
</g>
<g opacity="1">
<path d="M108.826 373.55L101.962 373.55L95.0974 355.192L101.962 355.192L108.826 373.55Z" fill="#151515" fill-rule="nonzero" opacity="1" stroke="none"/>
<path d="M113.456 373.55L111.061 373.55L104.197 355.192L111.061 355.192L115.683 367.552L113.456 373.55Z" fill="#151515" fill-rule="nonzero" opacity="1" stroke="none"/>
<path d="M123.645 364.659L127.185 355.192L120.321 355.192L116.781 364.657L123.645 364.659Z" fill="#151515" fill-rule="nonzero" opacity="1" stroke="none"/>
<path d="M117.849 352.703L111.308 352.703C111.308 352.703 111.259 349.173 106.306 349.173C101.353 349.173 101.464 353.498 101.464 353.498L94.924 353.498C94.924 353.498 94.6792 342.964 106.254 342.964C117.829 342.964 117.849 352.703 117.849 352.703Z" fill="#151515" fill-rule="nonzero" opacity="1" stroke="none"/>
</g>
</g>
</svg>
