<?xml version="1.0" encoding="UTF-8" standalone="no"?>
<!DOCTYPE svg PUBLIC "-//W3C//DTD SVG 1.1//EN" "http://www.w3.org/Graphics/SVG/1.1/DTD/svg11.dtd"
[
<!ATTLIST g
  xmlns:vectornator CDATA #FIXED "http://vectornator.io"
  vectornator:layerName CDATA #IMPLIED >
<!ATTLIST g
  xmlns:vectornator CDATA #FIXED "http://vectornator.io"
  vectornator:mask CDATA #IMPLIED >
<!ATTLIST text
  xmlns:vectornator CDATA #FIXED "http://vectornator.io"
  vectornator:width CDATA #IMPLIED >
<!ATTLIST text
  xmlns:vectornator CDATA #FIXED "http://vectornator.io"
  vectornator:text CDATA #IMPLIED >

<!ATTLIST path
  xmlns:vectornator CDATA #FIXED "http://vectornator.io"
  vectornator:blendMode CDATA #IMPLIED >
<!ATTLIST path
  xmlns:vectornator CDATA #FIXED "http://vectornator.io"
  vectornator:shadowColor CDATA #IMPLIED >
<!ATTLIST path
  xmlns:vectornator CDATA #FIXED "http://vectornator.io"
  vectornator:shadowOpacity CDATA #IMPLIED >
<!ATTLIST path
  xmlns:vectornator CDATA #FIXED "http://vectornator.io"
  vectornator:shadowRadius CDATA #IMPLIED >
<!ATTLIST path
  xmlns:vectornator CDATA #FIXED "http://vectornator.io"
  vectornator:shadowOffset CDATA #IMPLIED >
<!ATTLIST path
  xmlns:vectornator CDATA #FIXED "http://vectornator.io"
  vectornator:shadowAngle CDATA #IMPLIED >

<!ATTLIST image
  xmlns:vectornator CDATA #FIXED "http://vectornator.io"
  vectornator:blendMode CDATA #IMPLIED >
<!ATTLIST image
  xmlns:vectornator CDATA #FIXED "http://vectornator.io"
  vectornator:shadowColor CDATA #IMPLIED >
<!ATTLIST image
  xmlns:vectornator CDATA #FIXED "http://vectornator.io"
  vectornator:shadowOpacity CDATA #IMPLIED >
<!ATTLIST image
  xmlns:vectornator CDATA #FIXED "http://vectornator.io"
  vectornator:shadowRadius CDATA #IMPLIED >
<!ATTLIST image
  xmlns:vectornator CDATA #FIXED "http://vectornator.io"
  vectornator:shadowOffset CDATA #IMPLIED >
<!ATTLIST image
  xmlns:vectornator CDATA #FIXED "http://vectornator.io"
  vectornator:shadowAngle CDATA #IMPLIED >

<!ATTLIST g
  xmlns:vectornator CDATA #FIXED "http://vectornator.io"
  vectornator:blendMode CDATA #IMPLIED >
<!ATTLIST g
  xmlns:vectornator CDATA #FIXED "http://vectornator.io"
  vectornator:shadowColor CDATA #IMPLIED >
<!ATTLIST g
  xmlns:vectornator CDATA #FIXED "http://vectornator.io"
  vectornator:shadowOpacity CDATA #IMPLIED >
<!ATTLIST g
  xmlns:vectornator CDATA #FIXED "http://vectornator.io"
  vectornator:shadowRadius CDATA #IMPLIED >
<!ATTLIST g
  xmlns:vectornator CDATA #FIXED "http://vectornator.io"
  vectornator:shadowOffset CDATA #IMPLIED >
<!ATTLIST g
  xmlns:vectornator CDATA #FIXED "http://vectornator.io"
  vectornator:shadowAngle CDATA #IMPLIED >

<!ENTITY % SVG.filter.extra.content  "| feDropShadow" >
<!ELEMENT feDropShadow EMPTY>
<!ATTLIST feDropShadow
  xmlns:svg CDATA #FIXED "http://www.w3.org/Graphics/SVG/1.1/DTD/svg11.dtd"
  dx CDATA #IMPLIED>
<!ATTLIST feDropShadow
  xmlns:svg CDATA #FIXED "http://www.w3.org/Graphics/SVG/1.1/DTD/svg11.dtd"
  dy CDATA #IMPLIED>
<!ATTLIST feDropShadow
  xmlns:svg CDATA #FIXED "http://www.w3.org/Graphics/SVG/1.1/DTD/svg11.dtd"
  stdDeviation CDATA #IMPLIED>
<!ATTLIST feDropShadow
  xmlns:svg CDATA #FIXED "http://www.w3.org/Graphics/SVG/1.1/DTD/svg11.dtd"
  flood-opacity CDATA #IMPLIED>
<!ATTLIST feDropShadow
  xmlns:svg CDATA #FIXED "http://www.w3.org/Graphics/SVG/1.1/DTD/svg11.dtd"
  in CDATA #IMPLIED>
<!ATTLIST feDropShadow
  xmlns:svg CDATA #FIXED "http://www.w3.org/Graphics/SVG/1.1/DTD/svg11.dtd"
  result CDATA #IMPLIED>
<!ATTLIST feDropShadow
  xmlns:svg CDATA #FIXED "http://www.w3.org/Graphics/SVG/1.1/DTD/svg11.dtd"
  flood-color CDATA #IMPLIED>
]
>
<!-- Created with Vectornator (http://vectornator.io/) -->
<svg height="100%" stroke-miterlimit="10" style="fill-rule:nonzero;clip-rule:evenodd;stroke-linecap:round;stroke-linejoin:round;" version="1.1" viewBox="0 0 45 380" width="100%" xml:space="preserve" xmlns="http://www.w3.org/2000/svg" xmlns:vectornator="http://vectornator.io" xmlns:xlink="http://www.w3.org/1999/xlink">
<defs/>
<clipPath id="ArtboardFrame">
<rect height="380" width="45" x="0" y="0"/>
</clipPath>
<g clip-path="url(#ArtboardFrame)" id="Layer-1" vectornator:layerName="Layer 1">
<path d="M0 0L45 0L45 380L0 380L0 0Z" fill="#8d3f3f" fill-rule="evenodd" opacity="1" stroke="#000000" stroke-linecap="butt" stroke-linejoin="miter" stroke-width="10"/>
<path d="M29.2713 268.812C30.1541 268.815 30.9092 269.032 31.5366 269.464C32.1641 269.896 32.6385 270.532 32.9598 271.373C33.2812 272.214 33.4398 273.236 33.4357 274.439C33.4317 275.588 33.2526 276.572 32.8982 277.391C32.5439 278.21 32.1023 278.814 31.5737 279.203C31.045 279.591 30.515 279.785 29.9838 279.783C29.6322 279.782 29.3319 279.656 29.0827 279.405C28.8336 279.154 28.7097 278.837 28.711 278.455C28.7121 278.119 28.795 277.861 28.9597 277.682C29.1244 277.503 29.3554 277.332 29.6529 277.169C30.2243 276.843 30.6514 276.451 30.9342 275.995C31.217 275.539 31.3598 274.917 31.3625 274.128C31.3647 273.487 31.2239 272.961 30.9402 272.55C30.6564 272.139 30.3309 271.933 29.9638 271.931C29.4013 271.93 28.9904 272.141 28.7311 272.566C28.4718 272.991 28.2233 273.691 27.9856 274.667C27.7084 275.768 27.4183 276.663 27.1151 277.353C26.812 278.044 26.4136 278.595 25.92 279.008C25.4264 279.42 24.8202 279.625 24.1015 279.622C23.4609 279.62 22.8561 279.427 22.2871 279.042C21.7181 278.657 21.2649 278.091 20.9276 277.344C20.5903 276.597 20.4235 275.696 20.4271 274.641C20.4299 273.813 20.5184 273.069 20.6925 272.41C20.8667 271.75 21.099 271.2 21.3896 270.76C21.6802 270.319 22.0016 269.984 22.354 269.755C22.7063 269.526 23.0504 269.412 23.3864 269.413C23.7536 269.414 24.0539 269.538 24.2875 269.785C24.521 270.032 24.637 270.382 24.6354 270.835C24.6343 271.163 24.5396 271.442 24.3513 271.672C24.163 271.902 23.8809 272.165 23.5049 272.46C23.1915 272.701 22.9406 272.986 22.752 273.313C22.5633 273.641 22.4681 274.086 22.4661 274.648C22.4642 275.226 22.5856 275.707 22.8303 276.091C23.0751 276.474 23.3811 276.667 23.7483 276.668C24.0842 276.669 24.3601 276.53 24.5759 276.249C24.7917 275.969 24.9707 275.59 25.113 275.114C25.2553 274.638 25.4294 273.982 25.6354 273.147C25.8809 272.156 26.1728 271.346 26.5108 270.719C26.8489 270.091 27.247 269.616 27.7052 269.293C28.1633 268.97 28.6854 268.81 29.2713 268.812Z" fill="#ffffff" fill-rule="evenodd" opacity="1" stroke="none"/>
<path d="M17.6546 262.936L22.4007 262.952C21.9333 262.545 21.5636 262.147 21.2914 261.759C21.0193 261.372 20.8157 260.943 20.6806 260.474C20.5455 260.005 20.4788 259.501 20.4807 258.961C20.4835 258.149 20.6578 257.429 21.0037 256.801C21.3496 256.173 21.8513 255.681 22.5088 255.324C22.8923 255.099 23.3206 254.948 23.7935 254.871C24.2664 254.795 24.8115 254.758 25.4287 254.76L31.5575 254.781C32.1982 254.783 32.682 254.931 33.0092 255.225C33.3363 255.519 33.499 255.908 33.4974 256.393C33.4938 257.447 32.8435 257.973 31.5467 257.968L26.1443 257.95C25.1209 257.946 24.3333 258.096 23.7815 258.399C23.2296 258.701 22.9523 259.279 22.9494 260.13C22.9474 260.7 23.1078 261.215 23.4304 261.673C23.7531 262.131 24.1953 262.474 24.757 262.703C25.233 262.876 26.0803 262.965 27.2991 262.969L31.5295 262.984C32.1623 262.986 32.6442 263.13 32.9753 263.416C33.3064 263.703 33.471 264.1 33.4693 264.607C33.4657 265.662 32.8154 266.187 31.5186 266.183L17.6436 266.135C16.9952 266.133 16.5094 265.993 16.1861 265.714C15.8628 265.436 15.702 265.047 15.7038 264.547C15.7055 264.039 15.8709 263.643 16.2 263.359C16.5291 263.075 17.014 262.934 17.6546 262.936Z" fill="#ffffff" fill-rule="evenodd" opacity="1" stroke="none"/>
<path d="M27.0507 239.624C28.0039 239.628 28.8823 239.779 29.6859 240.079C30.4896 240.378 31.1795 240.81 31.7557 241.375C32.3319 241.939 32.773 242.613 33.0789 243.395C33.3848 244.177 33.5361 245.057 33.5328 246.033C33.5295 247.002 33.3702 247.873 33.0551 248.645C32.74 249.417 32.2904 250.086 31.7064 250.65C31.1225 251.215 30.4335 251.642 29.6395 251.932C28.8456 252.222 27.9681 252.366 27.0072 252.363C26.0385 252.359 25.1522 252.208 24.3486 251.908C23.5449 251.609 22.8589 251.181 22.2905 250.624C21.722 250.067 21.2849 249.394 20.979 248.604C20.6731 247.814 20.5218 246.942 20.525 245.989C20.5284 245.02 20.6876 244.142 21.0028 243.354C21.318 242.566 21.7656 241.892 22.3457 241.331C22.9257 240.771 23.6147 240.345 24.4125 240.055C25.2104 239.765 26.0898 239.621 27.0507 239.624ZM27.0398 242.835C25.7351 242.831 24.7185 243.115 23.99 243.686C23.2614 244.258 22.8955 245.028 22.8922 245.997C22.8901 246.622 23.0503 247.173 23.3729 247.651C23.6955 248.129 24.1727 248.497 24.8047 248.757C25.4366 249.017 26.1744 249.149 27.0182 249.152C27.8541 249.155 28.585 249.03 29.2109 248.778C29.8367 248.527 30.3165 248.165 30.6501 247.693C30.9838 247.222 31.1517 246.666 31.1539 246.025C31.1572 245.057 30.7946 244.284 30.0661 243.707C29.3376 243.13 28.3288 242.84 27.0398 242.835Z" fill="#ffffff" fill-rule="evenodd" opacity="1" stroke="none"/>
<path d="M28.9569 233.936L31.6288 233.945C32.2772 233.947 32.763 234.101 33.0862 234.407C33.4094 234.713 33.5702 235.1 33.5686 235.569C33.567 236.03 33.4016 236.408 33.0725 236.704C32.7433 236.999 32.2585 237.146 31.6178 237.144L22.7116 237.114C21.2742 237.109 20.5572 236.587 20.5607 235.548C20.5626 235.016 20.7318 234.634 21.0686 234.401C21.4053 234.168 21.9018 234.04 22.5582 234.019C21.9032 233.634 21.4085 233.24 21.0739 232.836C20.7394 232.433 20.5732 231.895 20.5755 231.223C20.5778 230.552 20.748 229.9 21.0861 229.268C21.4242 228.636 21.8706 228.322 22.4253 228.323C22.8159 228.325 23.1377 228.461 23.3907 228.731C23.6437 229.001 23.7696 229.293 23.7686 229.605C23.7682 229.723 23.6949 230.006 23.5489 230.454C23.4028 230.903 23.3292 231.299 23.328 231.643C23.3264 232.112 23.4481 232.495 23.6932 232.793C23.9383 233.09 24.3027 233.322 24.7866 233.488C25.2704 233.654 25.8461 233.769 26.5139 233.834C27.1816 233.898 27.996 233.932 28.9569 233.936Z" fill="#ffffff" fill-rule="evenodd" opacity="1" stroke="none"/>
<path d="M20.8743 226.103L20.8755 225.752L18.9536 225.745C18.438 225.743 18.0337 225.728 17.7409 225.7C17.448 225.672 17.1963 225.595 16.9858 225.469C16.7675 225.343 16.5904 225.163 16.4544 224.928C16.3185 224.693 16.2511 224.431 16.252 224.142C16.2534 223.736 16.407 223.369 16.7128 223.042C16.9167 222.824 17.1652 222.686 17.4584 222.629C17.7516 222.571 18.1677 222.543 18.7067 222.545L20.8864 222.553L20.8904 221.381C20.892 220.928 21.0006 220.582 21.2162 220.345C21.4319 220.107 21.7077 219.989 22.0436 219.99C22.4733 219.992 22.7735 220.162 22.9442 220.503C23.1149 220.843 23.1992 221.33 23.197 221.963L23.195 222.56L29.0778 222.581C29.5778 222.582 29.9626 222.566 30.2322 222.532C30.5019 222.497 30.721 222.404 30.8895 222.253C31.0579 222.101 31.1428 221.853 31.1439 221.509C31.1446 221.322 31.1123 221.068 31.0469 220.747C30.9816 220.427 30.9493 220.177 30.9499 219.997C30.9508 219.739 31.0551 219.507 31.2628 219.301C31.4706 219.095 31.7268 218.992 32.0315 218.993C32.5471 218.995 32.9407 219.277 33.2122 219.841C33.4837 220.404 33.6176 221.213 33.614 222.268C33.6106 223.268 33.44 224.025 33.1023 224.54C32.7647 225.054 32.2987 225.39 31.7044 225.549C31.1101 225.707 30.3168 225.784 29.3246 225.781L23.1841 225.76L23.1826 226.181C23.181 226.642 23.0705 226.994 22.8509 227.235C22.6313 227.476 22.3536 227.597 22.0176 227.595C21.6817 227.594 21.4067 227.466 21.1928 227.212C20.9788 226.957 20.8726 226.588 20.8743 226.103Z" fill="#ffffff" fill-rule="evenodd" opacity="1" stroke="none"/>
<path d="M22.6205 215.797L29.776 213.735L23.138 211.814C22.4434 211.609 21.9693 211.457 21.7157 211.358C21.4621 211.259 21.2206 211.075 20.991 210.805C20.7615 210.534 20.6475 210.165 20.6491 209.696C20.6507 209.22 20.7673 208.847 20.9986 208.578C21.23 208.309 21.4807 208.121 21.7506 208.012C22.0205 207.904 22.4878 207.753 23.1525 207.56L29.8035 205.684L22.6623 203.551C22.1472 203.408 21.7745 203.294 21.5444 203.207C21.3142 203.12 21.1115 202.975 20.9365 202.771C20.7614 202.568 20.6745 202.274 20.6758 201.892C20.6771 201.509 20.8111 201.177 21.0776 200.897C21.3442 200.616 21.6572 200.477 22.0166 200.478C22.3447 200.479 22.8404 200.602 23.5036 200.846L31.1587 203.486C31.8063 203.715 32.2745 203.892 32.5631 204.018C32.8518 204.144 33.1089 204.342 33.3345 204.613C33.5602 204.883 33.6722 205.252 33.6706 205.721C33.6689 206.205 33.5465 206.586 33.3034 206.862C33.0603 207.139 32.7627 207.343 32.4107 207.475C32.0587 207.606 31.6011 207.749 31.0381 207.904L24.7975 209.71L31.0258 211.501C31.8922 211.739 32.5456 211.995 32.9861 212.27C33.4266 212.545 33.6456 213.026 33.6433 213.713C33.6421 214.065 33.5727 214.363 33.4351 214.609C33.2976 214.855 33.1016 215.059 32.8471 215.222C32.5926 215.385 32.2914 215.529 31.9433 215.653C31.5952 215.777 31.3195 215.873 31.1161 215.943L23.4432 218.507C22.7236 218.762 22.2271 218.889 21.9536 218.888C21.6099 218.887 21.3018 218.749 21.0293 218.475C20.7568 218.2 20.6212 217.864 20.6226 217.466C20.6244 216.934 20.776 216.576 21.0774 216.389C21.3788 216.203 21.8932 216.005 22.6205 215.797Z" fill="#ffffff" fill-rule="evenodd" opacity="1" stroke="none"/>
<path d="M31.9178 190.539C32.5167 191.315 32.9653 192.064 33.2636 192.788C33.5619 193.512 33.7096 194.323 33.7065 195.221C33.7037 196.041 33.5391 196.762 33.2128 197.382C32.8864 198.002 32.4453 198.479 31.8895 198.813C31.3337 199.147 30.7315 199.313 30.0831 199.31C29.2081 199.307 28.463 199.028 27.8477 198.471C27.2324 197.914 26.8209 197.151 26.6133 196.181C26.5671 195.978 26.4634 195.474 26.3021 194.669C26.1408 193.863 25.9927 193.173 25.858 192.599C25.7232 192.024 25.5593 191.4 25.3663 190.728C24.5225 190.764 23.9027 190.932 23.5072 191.231C23.1116 191.531 22.9122 192.153 22.909 193.098C22.9062 193.911 23.0174 194.523 23.2426 194.933C23.4677 195.344 23.8064 195.697 24.2585 195.992C24.7106 196.286 25.0087 196.494 25.1528 196.616C25.297 196.737 25.3683 196.997 25.367 197.396C25.3657 197.755 25.2495 198.065 25.0181 198.326C24.7867 198.587 24.4914 198.717 24.132 198.716C23.5695 198.714 23.0233 198.513 22.4934 198.113C21.9635 197.712 21.5282 197.09 21.1873 196.245C20.8464 195.4 20.6781 194.349 20.6824 193.091C20.6873 191.684 20.857 190.58 21.1918 189.776C21.5266 188.972 22.0539 188.406 22.7738 188.076C23.4937 187.747 24.4474 187.584 25.6349 187.588C26.3849 187.591 27.0216 187.595 27.545 187.6C28.0684 187.606 28.6504 187.614 29.291 187.624C29.8926 187.626 30.5199 187.529 31.1729 187.332C31.8259 187.135 32.2462 187.036 32.4337 187.037C32.7618 187.038 33.0601 187.194 33.3286 187.503C33.5971 187.813 33.7306 188.163 33.7293 188.553C33.7282 188.881 33.5728 189.205 33.2631 189.524C32.9534 189.844 32.505 190.182 31.9178 190.539ZM27.2882 190.734C27.4585 191.204 27.6378 191.886 27.8261 192.781C28.0145 193.676 28.153 194.296 28.2416 194.64C28.3303 194.984 28.505 195.313 28.7656 195.626C29.0263 195.94 29.391 196.097 29.8597 196.099C30.3441 196.1 30.7568 195.918 31.0979 195.552C31.439 195.186 31.6106 194.706 31.6126 194.112C31.6148 193.48 31.4781 192.895 31.2026 192.359C30.9271 191.823 30.571 191.429 30.1344 191.178C29.651 190.887 28.8546 190.74 27.7452 190.736L27.2882 190.734Z" fill="#ffffff" fill-rule="evenodd" opacity="1" stroke="none"/>
<path d="M22.7337 182.668L30.0082 180.103L22.4357 177.288C21.8271 177.067 21.3962 176.851 21.143 176.639C20.8898 176.427 20.7639 176.107 20.7654 175.677C20.7668 175.271 20.9047 174.925 21.1791 174.641C21.4535 174.357 21.7704 174.215 22.1298 174.217C22.2704 174.217 22.4344 174.243 22.6217 174.294C22.809 174.346 22.9846 174.405 23.1485 174.472C23.3123 174.539 23.4995 174.616 23.7102 174.703L31.3168 177.799C31.5353 177.886 31.8122 177.998 32.1477 178.136C32.4832 178.274 32.7698 178.427 33.0075 178.596C33.2452 178.764 33.43 178.972 33.562 179.219C33.6939 179.465 33.7593 179.764 33.7581 180.116C33.7566 180.569 33.6518 180.93 33.4439 181.199C33.2359 181.468 33.0087 181.666 32.7622 181.794C32.5156 181.922 32.0286 182.137 31.301 182.439L23.7554 185.461C23.5677 185.53 23.3799 185.602 23.1922 185.675C23.0044 185.749 22.8128 185.811 22.6173 185.861C22.4218 185.911 22.2538 185.936 22.1132 185.935C21.8944 185.935 21.6778 185.868 21.4635 185.734C21.2491 185.6 21.0739 185.416 20.938 185.181C20.8021 184.947 20.7346 184.692 20.7355 184.419C20.7373 183.888 20.8909 183.523 21.1963 183.325C21.5017 183.127 22.0141 182.908 22.7337 182.668Z" fill="#ffffff" fill-rule="evenodd" opacity="1" stroke="none"/>
</g>
</svg>
